<?xml version="1.0" standalone="no"?>
<!DOCTYPE svg PUBLIC "-//W3C//DTD SVG 20010904//EN"
 "http://www.w3.org/TR/2001/REC-SVG-20010904/DTD/svg10.dtd">
<svg version="1.0" xmlns="http://www.w3.org/2000/svg"
 width="1706.000000pt" height="1706.000000pt" viewBox="0 0 1706.000000 1706.000000"
 preserveAspectRatio="xMidYMid meet">
<metadata>
Created by potrace 1.14, written by Peter Selinger 2001-2017
</metadata>
<g transform="translate(0.000000,1706.000000) scale(0.100000,-0.100000)"
fill="#000000" stroke="none">
<path d="M0 8530 l0 -8530 8530 0 8530 0 0 8530 0 8530 -8530 0 -8530 0 0
-8530z m8730 5694 c47 -4 94 -11 104 -17 11 -5 48 -15 83 -23 35 -7 83 -22
106 -32 23 -11 69 -25 102 -31 33 -6 65 -18 71 -26 6 -8 29 -21 50 -29 42 -14
92 -44 151 -88 19 -16 40 -28 45 -28 13 0 216 -169 222 -186 3 -8 16 -14 28
-14 38 0 46 -10 96 -115 11 -22 39 -61 63 -87 72 -78 89 -104 98 -152 11 -61
63 -144 133 -216 48 -49 83 -71 205 -131 157 -77 220 -114 293 -172 203 -161
357 -328 456 -497 60 -101 122 -234 140 -300 9 -36 21 -73 26 -84 19 -37 47
-155 60 -247 15 -117 14 -378 -1 -484 -25 -161 -90 -393 -131 -463 -12 -20
-28 -56 -37 -81 -8 -25 -26 -56 -39 -69 -13 -13 -24 -26 -24 -31 0 -4 -11 -20
-25 -36 -14 -15 -29 -40 -32 -57 -3 -16 -12 -32 -20 -35 -8 -3 -18 -14 -21
-24 -16 -43 -187 -220 -239 -247 -17 -9 -45 -34 -62 -56 -28 -35 -138 -116
-159 -116 -4 0 -56 -25 -116 -55 -59 -30 -111 -55 -116 -55 -5 0 -26 -11 -46
-25 -20 -14 -44 -25 -53 -25 -34 0 -53 -26 -62 -81 -5 -29 -18 -65 -29 -79
-11 -14 -41 -65 -66 -115 -59 -117 -81 -153 -113 -192 -22 -27 -57 -74 -79
-108 -4 -6 -18 -17 -31 -26 -18 -11 -25 -25 -25 -50 -1 -32 -3 -34 -34 -32
-27 1 -37 -4 -50 -25 -8 -15 -35 -43 -59 -62 -23 -19 -62 -52 -85 -74 -42 -37
-110 -75 -136 -76 -7 0 -34 -17 -60 -38 -75 -61 -192 -111 -365 -157 -48 -12
-97 -29 -110 -37 -17 -11 -81 -15 -308 -17 -248 -3 -290 -1 -325 14 -43 18
-191 60 -268 76 -27 6 -84 29 -125 51 -42 22 -123 65 -181 94 -66 35 -115 67
-133 89 -16 19 -34 35 -41 35 -7 0 -35 21 -63 48 -28 26 -69 63 -91 82 -23 19
-73 76 -113 125 -40 50 -83 99 -95 110 -30 27 -167 296 -188 366 -21 74 -48
106 -99 119 -67 17 -97 31 -97 46 0 19 -33 34 -73 34 -22 0 -47 10 -70 28 -20
15 -57 42 -82 61 -25 18 -45 40 -45 47 0 8 -10 19 -22 24 -45 20 -143 98 -158
126 -9 16 -30 38 -48 49 -17 11 -36 33 -43 49 -7 15 -30 44 -51 64 -21 20 -47
54 -57 76 -10 23 -25 47 -34 55 -10 7 -17 24 -17 37 0 13 -13 39 -30 57 -16
19 -30 38 -30 42 0 4 -15 37 -34 74 -18 36 -46 107 -61 156 -16 50 -35 100
-42 112 -28 43 -53 327 -46 531 5 170 15 235 53 352 17 52 35 111 41 130 20
62 134 288 178 350 135 192 162 223 366 406 59 53 202 148 248 164 18 6 77 37
132 69 91 52 103 62 133 117 19 32 40 75 47 94 7 19 29 60 49 90 20 30 36 60
36 66 0 16 84 128 165 218 75 84 306 284 377 327 23 15 81 43 128 64 47 21 94
46 105 55 11 10 38 22 60 26 22 3 56 15 76 25 44 22 170 48 384 79 60 8 223 6
385 -6z m-1265 -5771 c19 -21 35 -44 35 -51 0 -28 -31 -70 -57 -77 -85 -24
-139 30 -112 112 20 63 84 70 134 16z m431 -14 c30 -58 -4 -119 -66 -119 -73
0 -109 65 -71 127 15 23 29 33 53 35 44 5 64 -6 84 -43z m1859 -109 c8 -16 15
-51 15 -77 0 -28 8 -63 19 -83 18 -33 18 -36 0 -75 -16 -34 -18 -67 -18 -230
0 -104 3 -198 7 -207 6 -15 39 -43 108 -92 22 -16 24 -20 12 -32 -23 -23 -155
-29 -221 -10 -53 15 -57 19 -69 59 -9 30 -13 125 -13 332 l0 290 39 72 c37 68
46 76 93 82 7 0 19 -12 28 -29z m-527 -169 c67 -35 90 -68 103 -151 6 -41 9
-92 6 -115 -3 -22 -2 -94 2 -160 6 -112 9 -124 35 -158 l28 -37 -38 -16 c-27
-11 -52 -14 -91 -9 -106 13 -123 60 -118 325 3 166 1 191 -17 242 -22 63 -17
83 25 91 12 2 23 5 25 6 1 0 19 -8 40 -18z m1180 3 c102 -42 122 -99 122 -345
l0 -178 30 -50 29 -51 -29 -15 c-37 -19 -89 -19 -139 1 -65 26 -75 67 -76 314
0 190 -2 209 -23 254 -24 53 -19 71 21 79 12 2 23 5 25 6 1 0 19 -6 40 -15z
m-3420 -33 c43 -34 52 -47 61 -91 15 -70 15 -496 0 -506 -20 -12 -145 -17
-165 -6 -19 10 -20 20 -17 251 l4 241 -24 23 c-13 12 -37 29 -54 39 -17 9 -36
26 -43 37 -10 19 -7 23 22 36 18 8 63 14 100 15 62 0 69 -2 116 -39z m498 22
c18 -25 20 -603 2 -621 -15 -15 -114 -16 -155 -2 -30 11 -30 11 -22 64 5 29 7
140 6 247 -2 162 -6 198 -20 220 -15 23 -15 27 -1 47 20 28 50 44 99 53 66 11
77 10 91 -8z m-851 -8 c13 -11 19 -26 18 -53 -4 -159 -2 -490 3 -518 5 -30 3
-35 -21 -44 -34 -13 -141 -13 -166 0 -18 10 -19 20 -14 193 5 169 -3 301 -20
354 -5 17 0 29 23 53 28 27 36 30 94 30 40 -1 70 -6 83 -15z m1279 -7 c12 -19
15 -72 16 -273 1 -137 2 -266 3 -285 3 -44 -26 -60 -108 -59 -106 1 -97 -23
-101 280 -1 145 -3 279 -5 296 -1 18 0 36 4 39 11 11 70 22 124 23 44 1 55 -3
67 -21z m384 9 c12 -15 4 -61 -22 -122 -21 -48 -14 -134 14 -180 10 -16 20
-43 22 -60 4 -41 -25 -44 -90 -11 -53 27 -80 57 -106 120 -21 50 -20 78 7 151
17 46 31 65 62 87 43 29 96 36 113 15z m428 -1 c9 -23 -14 -54 -45 -61 -50
-11 -64 -35 -56 -100 7 -53 5 -63 -26 -121 -31 -58 -39 -66 -92 -89 -58 -25
-88 -31 -100 -19 -7 7 11 51 34 82 26 34 31 106 16 207 -8 50 -12 93 -10 98 6
10 81 9 119 -2 20 -6 40 -4 60 4 40 18 93 18 100 1z m253 -5 c20 -13 7 -96
-22 -138 -38 -57 -106 -58 -126 -2 -13 37 -4 58 47 112 36 37 71 47 101 28z
m1189 -38 c4 -59 -28 -130 -63 -139 -34 -8 -72 9 -86 39 -23 51 56 151 115
145 29 -3 31 -6 34 -45z m-1132 -259 c5 -19 0 -32 -18 -52 -30 -33 -48 -74
-48 -110 0 -20 15 -41 57 -80 54 -50 57 -55 40 -67 -45 -33 -177 -27 -217 10
-33 29 -63 103 -56 135 15 77 135 188 203 189 27 1 34 -4 39 -25z m1190 0 c5
-20 0 -32 -26 -59 -25 -26 -34 -45 -37 -82 -6 -57 14 -89 85 -133 l45 -28 -39
-13 c-48 -16 -135 -16 -190 -1 -38 11 -43 17 -59 65 -10 28 -17 67 -16 85 5
86 110 175 223 191 4 1 11 -11 14 -25z m-2021 -157 c26 -48 54 -56 185 -53
119 3 212 -11 253 -38 15 -11 39 -39 54 -63 22 -38 25 -51 19 -95 -8 -60 -40
-126 -64 -135 -9 -3 -26 -15 -38 -25 -16 -14 -40 -20 -100 -22 -81 -4 -130 8
-103 25 8 5 33 9 57 9 80 0 130 85 87 147 -20 29 -90 42 -234 44 -102 2 -115
0 -128 -17 -14 -19 -11 -72 8 -121 9 -24 57 -53 103 -62 l29 -6 -24 -27 -24
-27 -65 14 c-80 17 -102 29 -123 65 -28 46 -22 92 18 140 19 23 35 43 35 43 0
1 -9 31 -20 67 -26 86 -25 112 6 150 32 37 43 35 69 -13z m-813 -1172 c25 -4
47 -18 72 -45 l36 -40 0 -218 c0 -119 3 -233 6 -253 9 -56 -19 -79 -95 -79
-48 0 -65 5 -87 23 -24 21 -25 26 -14 47 17 31 23 213 13 360 l-8 114 -62 19
c-35 10 -63 23 -63 28 0 13 46 41 83 49 31 8 45 7 119 -5z m1618 -12 c17 -9
42 -35 57 -56 l26 -38 -1 -207 c-1 -115 2 -223 8 -241 8 -29 6 -36 -16 -58
-23 -23 -31 -25 -89 -21 -99 6 -95 -8 -94 279 1 172 -2 253 -10 263 -6 7 -32
16 -57 20 -24 3 -54 11 -65 17 l-21 11 22 15 c63 44 180 52 240 16z m-2314 -9
c19 -18 24 -32 20 -48 -11 -45 -9 -472 3 -494 9 -17 6 -24 -20 -46 -25 -21
-41 -26 -89 -26 -41 0 -64 5 -80 18 -23 19 -23 20 -21 271 2 221 0 255 -14
278 -21 31 -14 38 55 56 84 23 117 21 146 -9z m294 13 c14 -7 46 -27 71 -46
l47 -33 4 -257 c4 -207 2 -259 -9 -271 -10 -11 -35 -15 -89 -15 -100 0 -114
14 -103 105 8 74 2 421 -9 431 -4 4 -32 16 -62 26 -30 10 -55 22 -55 27 0 5
16 17 35 27 40 22 131 25 170 6z m1683 -15 c15 -14 17 -41 17 -297 0 -215 -3
-285 -13 -293 -36 -30 -137 -25 -181 9 -21 17 -24 24 -16 39 6 11 11 116 13
244 l2 225 -25 26 c-31 33 -19 45 62 60 71 14 115 10 141 -13z m1028 14 c56
-24 104 -83 122 -153 23 -84 21 -109 -5 -127 -34 -24 -138 -21 -171 4 l-26 21
21 40 c23 45 20 114 -7 155 -8 13 -15 35 -15 49 0 30 27 33 81 11z m438 -4
c28 -14 38 -28 56 -82 38 -112 62 -172 104 -263 34 -74 41 -100 41 -151 0 -73
-10 -113 -46 -173 -31 -54 -42 -48 -69 37 -10 30 -28 74 -42 96 -13 23 -37 79
-54 125 -17 46 -41 103 -54 126 -13 23 -31 66 -41 95 -9 29 -30 77 -47 106
-28 50 -29 54 -12 72 29 33 113 39 164 12z m-2242 2 c33 -9 37 -34 10 -63 -32
-35 -61 -177 -54 -263 11 -135 26 -191 58 -221 25 -23 28 -31 19 -47 -23 -43
-105 -16 -179 58 -63 63 -86 127 -85 243 1 76 5 93 33 150 24 49 45 74 89 106
57 43 69 47 109 37z m248 -4 c49 -19 97 -65 128 -125 30 -57 31 -66 32 -175 0
-100 -3 -121 -23 -161 -21 -44 -90 -111 -140 -138 -27 -14 -75 -6 -93 15 -10
12 -8 18 9 30 41 28 62 113 62 247 0 134 -16 216 -49 251 -24 26 -26 37 -9 54
15 15 48 15 83 2z m1336 0 c25 -14 24 -27 -8 -74 -26 -37 -28 -47 -32 -162 -3
-116 -2 -126 24 -181 49 -105 81 -125 210 -133 50 -3 89 -9 88 -14 -1 -11 -30
-27 -98 -57 -49 -21 -52 -22 -135 -6 -189 37 -291 169 -277 359 8 94 50 189
96 212 16 9 31 22 34 30 5 13 18 19 75 35 2 1 12 -4 23 -9z m1018 -52 c-1 -18
-4 -44 -9 -58 l-7 -25 -11 27 c-6 15 -9 35 -7 43 3 8 7 22 10 30 8 27 25 15
24 -17z m-404 -765 c28 -13 35 -22 35 -45 0 -56 -97 -86 -175 -54 -30 13 -35
20 -35 48 0 18 4 38 8 45 22 35 100 38 167 6z m-3681 -495 c14 -20 16 -81 16
-472 0 -395 -2 -452 -16 -467 -11 -13 -22 -15 -42 -9 -15 4 -41 5 -58 3 -18
-3 -41 0 -52 6 -21 11 -21 17 -22 418 0 224 -3 430 -6 458 -4 34 -3 55 5 59 9
6 78 17 148 25 6 0 19 -9 27 -21z m419 5 c19 -11 36 -64 31 -92 -8 -37 -31
-59 -71 -67 -43 -9 -94 37 -95 85 -2 49 50 95 95 85 18 -3 35 -8 40 -11z m441
-141 c18 -81 30 -203 24 -242 -3 -25 -7 -136 -7 -247 l-1 -201 28 -22 c15 -12
42 -31 61 -43 19 -12 35 -26 35 -32 2 -21 -78 -37 -154 -30 -144 12 -148 20
-150 320 0 116 -5 230 -10 255 -9 47 -10 45 75 238 13 28 19 32 54 32 35 0 40
-3 45 -28z m-405 -200 c5 -9 10 -147 12 -306 3 -280 3 -289 -16 -297 -28 -11
-147 -11 -164 0 -12 8 -14 53 -12 261 2 214 0 255 -13 275 -12 18 -13 31 -6
50 5 14 13 25 17 26 5 1 37 6 73 13 68 12 93 7 109 -22z m1581 -14 l33 -32 -9
-96 c-5 -52 -9 -175 -9 -272 0 -121 -4 -181 -12 -189 -14 -14 -167 -9 -183 7
-6 6 -10 24 -10 40 4 144 -3 447 -11 478 -15 56 10 87 82 102 61 12 73 8 119
-38z m283 20 c36 -42 17 -100 -39 -118 -30 -10 -42 -9 -77 6 -23 10 -52 26
-64 37 l-21 19 20 34 c11 19 30 36 42 39 52 11 63 12 91 7 17 -2 38 -13 48
-24z m542 16 c14 -9 41 -43 61 -75 l35 -59 2 -197 c2 -187 3 -200 25 -237 22
-36 22 -39 5 -52 -27 -20 -70 -27 -118 -20 -52 8 -57 14 -85 90 -20 52 -21 66
-13 134 6 44 6 90 1 107 -5 18 -4 52 3 86 10 50 8 62 -16 134 -26 75 -27 79
-9 92 24 18 79 16 109 -3z m532 -5 c7 -7 -4 -39 -38 -109 -46 -93 -49 -102
-49 -179 0 -70 4 -90 31 -146 22 -47 39 -70 62 -82 18 -9 43 -24 56 -34 17
-14 41 -19 86 -19 45 0 64 -4 68 -14 12 -29 -24 -41 -135 -44 -111 -4 -138 2
-235 50 -22 11 -94 106 -107 142 -3 10 -7 68 -7 128 0 101 2 112 27 155 45 77
102 132 153 147 57 18 74 19 88 5z m637 -11 c8 -13 17 -38 21 -57 4 -19 24
-71 45 -116 21 -45 45 -108 55 -141 9 -32 25 -69 36 -82 22 -28 25 -99 9 -195
-7 -45 -16 -65 -40 -87 -16 -15 -30 -36 -31 -47 0 -10 -9 9 -18 42 -10 33 -27
78 -38 100 -12 22 -26 60 -33 85 -6 25 -20 59 -30 75 -10 17 -21 41 -25 55 -4
14 -20 53 -36 87 -16 34 -29 68 -29 75 0 7 -18 47 -40 88 -64 119 -54 139 67
140 65 0 74 -3 87 -22z m-2446 -2 c43 -23 69 -56 102 -135 31 -72 31 -76 16
-108 -9 -20 -25 -35 -42 -39 -30 -8 -182 1 -192 11 -4 3 3 14 15 23 56 43 60
117 10 206 -14 25 -22 47 -19 50 11 11 83 6 110 -8z m1000 2 c7 -7 12 -32 12
-55 0 -103 -76 -157 -137 -97 -20 20 -24 31 -19 57 8 37 40 75 81 93 38 17 48
17 63 2z m1033 -3 c40 -21 81 -88 77 -128 -4 -41 -44 -66 -85 -52 -36 13 -73
84 -73 141 0 55 25 67 81 39z m-2263 -24 c2 -13 -5 -35 -15 -50 -30 -41 -33
-54 -34 -180 -1 -131 8 -164 60 -224 18 -19 51 -45 75 -57 37 -18 52 -19 100
-12 l56 9 0 -27 c0 -40 -39 -52 -169 -54 -109 -1 -109 -1 -158 33 -80 56 -94
73 -129 150 -41 90 -44 153 -12 254 33 102 126 191 193 185 23 -2 31 -9 33
-27z m3001 -9 c6 -12 5 -23 -5 -37 -13 -17 -14 -16 -14 18 0 41 5 46 19 19z
m-68 -249 c-9 -16 -10 -14 -11 12 0 21 3 26 11 18 8 -8 8 -16 0 -30z m-1641
-12 c14 -26 15 -24 -25 -71 -59 -70 -46 -136 35 -181 73 -41 57 -65 -45 -69
-102 -5 -115 -2 -149 33 -40 39 -51 89 -36 163 12 58 7 52 119 126 36 24 87
23 101 -1z m1005 -241 c3 -5 -3 -10 -15 -10 -12 0 -18 5 -15 10 3 6 10 10 15
10 5 0 12 -4 15 -10z m294 -272 c52 -30 62 -45 49 -73 -23 -51 -117 -62 -167
-19 -34 29 -39 58 -15 92 20 30 83 30 133 0z m-4119 -205 c-1 -38 -3 -44 -11
-30 -9 16 -4 77 7 77 2 0 4 -21 4 -47z m1599 -19 c-6 -8 -23 -14 -36 -14 -14
0 -33 -10 -43 -22 -14 -17 -22 -20 -30 -12 -8 8 -2 21 24 47 32 34 37 36 66
26 25 -9 28 -14 19 -25z m-1743 -76 c-4 -26 -11 -58 -15 -71 -9 -22 -9 -22
-20 6 -14 37 -14 95 0 137 l12 33 15 -28 c10 -20 12 -43 8 -77z m3054 63 c0
-32 -14 -49 -25 -31 -9 15 3 60 15 60 6 0 10 -13 10 -29z m1820 -35 c-15 -15
-21 -2 -13 35 l7 34 8 -30 c4 -17 3 -34 -2 -39z m750 51 c0 -8 -9 -22 -20 -32
-11 -10 -20 -29 -20 -41 0 -27 -40 -57 -67 -52 -9 2 -21 17 -26 35 -6 21 -18
33 -33 37 -21 6 -23 9 -14 27 16 28 45 38 118 38 46 1 62 -3 62 -12z m-3328
-55 c-9 -26 -25 6 -17 35 l8 28 7 -25 c4 -14 5 -31 2 -38z m-1982 -14 c0 -47
-13 -49 -27 -5 -7 22 -6 38 1 49 14 23 26 4 26 -44z m3060 16 c0 -19 -4 -34
-9 -34 -12 0 -25 56 -16 70 12 19 25 0 25 -36z m-1560 15 c0 -5 -4 -9 -10 -9
-5 0 -10 7 -10 16 0 8 5 12 10 9 6 -3 10 -10 10 -16z m-2570 -38 c9 -23 9 -38
0 -65 -6 -20 -15 -36 -20 -36 -4 0 -15 17 -23 38 -13 33 -13 40 1 65 21 34 27
34 42 -2z m4733 5 c24 -22 25 -27 14 -61 -8 -26 -23 -45 -49 -62 -21 -13 -43
-21 -48 -18 -5 3 -14 30 -21 60 -10 45 -10 60 1 80 18 34 67 34 103 1z m-3243
-51 c0 -48 19 -75 52 -75 18 0 19 -4 13 -42 -4 -24 -8 -44 -10 -46 -1 -1 -13
4 -28 11 -34 18 -80 74 -67 82 16 10 12 65 -5 71 -8 4 -15 19 -15 35 0 27 1
28 30 18 27 -10 30 -15 30 -54z m1050 36 c0 -51 -48 -65 -81 -24 -11 13 -10
18 10 34 13 11 34 19 47 19 20 0 24 -5 24 -29z m-2381 1 c13 -25 -11 -56 -37
-48 -37 12 -45 32 -20 50 29 21 45 20 57 -2z m126 6 c31 -14 31 -25 3 -55 -28
-30 -33 -29 -48 7 -10 24 -10 33 0 45 15 18 13 18 45 3z m619 -87 c-17 -19
-48 -6 -39 17 5 9 13 32 19 50 l11 33 11 -43 c9 -33 8 -46 -2 -57z m4386 46
c0 -31 -28 -80 -41 -71 -10 6 -12 107 -3 117 13 13 44 -19 44 -46z m-3495 1
c12 -31 12 -34 -8 -41 -36 -13 -66 -1 -60 25 9 43 12 48 33 48 14 0 25 -11 35
-32z m3793 -2 c4 -32 -10 -46 -46 -46 -27 0 -37 20 -28 56 6 21 11 25 39 22
27 -3 33 -8 35 -32z m-1458 -97 c0 -49 -3 -89 -8 -89 -4 0 -13 25 -20 55 -10
43 -10 63 -1 94 7 22 16 38 20 35 5 -3 9 -45 9 -95z m-989 81 c18 -10 18 -12
-11 -36 -33 -28 -50 -25 -50 10 0 37 22 46 61 26z m674 -43 c3 -18 0 -49 -8
-72 l-15 -40 -17 39 c-16 39 -14 78 7 103 15 18 26 7 33 -30z m-2969 -29 c-11
-6 -30 -22 -42 -35 l-23 -25 -16 32 c-20 39 -13 48 40 52 48 4 68 -8 41 -24z
m178 -97 c-5 -116 -11 -144 -25 -136 -5 4 -9 51 -9 105 0 88 -2 102 -21 119
l-20 19 28 10 c48 16 53 3 47 -117z m1605 88 c-12 -24 -39 -25 -39 -1 0 27 21
44 37 31 9 -8 10 -16 2 -30z m-265 10 c-8 -14 -24 -10 -24 6 0 9 6 12 15 9 8
-4 12 -10 9 -15z m3001 -9 c-5 -8 -11 -8 -17 -2 -6 6 -7 16 -3 22 5 8 11 8 17
2 6 -6 7 -16 3 -22z m833 24 c18 -5 22 -13 21 -48 -1 -39 -1 -40 -11 -13 -6
16 -17 27 -28 27 -21 0 -34 15 -25 30 7 12 12 12 43 4z m242 -14 c0 -5 -4 -10
-10 -10 -5 0 -10 5 -10 10 0 6 5 10 10 10 6 0 10 -4 10 -10z m-6174 -41 c10
-17 -13 -36 -27 -22 -12 12 -4 33 11 33 5 0 12 -5 16 -11z m2301 -21 c-3 -8
-6 -5 -6 6 -1 11 2 17 5 13 3 -3 4 -12 1 -19z m-775 -15 l29 -28 -33 -11 c-22
-7 -41 -7 -59 0 l-27 10 21 27 c28 35 34 35 69 2z m3789 -9 c16 -20 -2 -34
-47 -34 -39 0 -46 7 -31 31 14 23 60 25 78 3z m-3203 -36 c7 -26 5 -34 -7 -40
-28 -12 -31 -9 -31 32 0 50 25 55 38 8z m-128 18 c0 -3 -4 -8 -10 -11 -5 -3
-10 -1 -10 4 0 6 5 11 10 11 6 0 10 -2 10 -4z m1880 -73 c0 -53 -1 -55 -22
-49 -13 3 -31 6 -40 6 -13 0 -10 7 13 29 17 18 29 40 29 56 0 15 4 24 10 20 6
-3 10 -31 10 -62z m590 57 c0 -6 11 -15 25 -22 27 -12 24 -28 -4 -28 -10 0
-32 -7 -49 -16 -30 -14 -33 -14 -62 8 l-31 23 28 22 c28 23 93 32 93 13z
m-4705 -70 c21 -17 19 -25 -9 -38 -34 -15 -49 5 -40 55 10 55 17 62 26 26 4
-17 15 -36 23 -43z m2574 46 c10 -12 8 -17 -6 -25 -24 -12 -46 0 -37 22 8 21
28 22 43 3z m3610 -5 c11 -7 9 -10 -8 -16 -11 -3 -21 -12 -21 -18 0 -7 -5 -4
-11 6 -18 30 8 48 40 28z m-2378 -77 c-18 -7 -33 -8 -48 -1 -28 13 -28 17 -2
51 l21 27 28 -33 28 -33 -27 -11z m-3035 9 c-10 -10 -19 5 -10 18 6 11 8 11
12 0 2 -7 1 -15 -2 -18z m-616 7 c11 -7 7 -10 -18 -10 -20 0 -31 4 -27 10 8
13 26 13 45 0z m145 0 c4 -6 -7 -10 -27 -10 -25 0 -29 3 -18 10 19 13 37 13
45 0z m2993 -5 c3 -3 -50 -5 -117 -5 -76 0 -120 4 -116 10 6 9 223 5 233 -5z
m622 5 c11 -7 4 -10 -25 -9 -31 0 -36 2 -20 9 26 11 28 11 45 0z"/>
<path d="M8620 14023 c-18 -22 -21 -36 -16 -68 4 -22 9 -240 12 -485 8 -514 7
-507 77 -486 24 7 61 25 83 40 21 14 43 26 48 26 5 0 19 9 30 19 12 11 55 28
96 39 41 11 107 30 145 41 180 54 382 74 602 59 148 -10 153 -10 188 12 34 21
36 28 10 60 -6 8 -18 31 -25 50 -12 32 -41 68 -126 154 -17 17 -34 43 -38 58
-7 33 -22 48 -89 92 -29 19 -58 44 -65 55 -7 12 -19 21 -26 21 -8 0 -29 18
-47 41 -23 29 -57 53 -123 85 -50 24 -97 44 -104 44 -8 0 -27 11 -44 25 -16
14 -37 25 -46 25 -9 0 -40 11 -67 24 -28 13 -73 26 -100 30 -27 5 -66 16 -86
27 -29 14 -191 39 -261 39 -4 0 -16 -12 -28 -27z"/>
<path d="M8227 14025 c-43 -7 -83 -18 -90 -23 -7 -5 -41 -17 -77 -25 -62 -15
-177 -57 -210 -77 -8 -5 -57 -32 -107 -61 -51 -29 -115 -71 -143 -95 -27 -23
-59 -46 -70 -49 -11 -4 -27 -20 -36 -36 -8 -17 -28 -38 -43 -47 -30 -18 -73
-68 -177 -204 -97 -127 -115 -208 -46 -208 15 0 92 5 172 11 142 11 149 11
334 -20 224 -38 396 -91 512 -157 94 -55 142 -62 160 -24 8 17 13 172 18 512
5 432 4 489 -10 502 -19 19 -77 19 -187 1z"/>
<path d="M8548 13993 c7 -3 16 -2 19 1 4 3 -2 6 -13 5 -11 0 -14 -3 -6 -6z"/>
<path d="M7320 13000 c-36 -5 -103 -15 -150 -24 -95 -18 -113 -32 -130 -99 -6
-23 -15 -55 -21 -72 -5 -16 -15 -84 -21 -151 -13 -132 0 -402 22 -459 6 -16
22 -68 35 -115 32 -116 62 -200 79 -219 8 -9 26 -43 41 -76 14 -33 37 -72 51
-86 24 -26 26 -26 70 -11 30 10 76 43 143 103 54 49 104 89 111 89 7 0 26 10
43 23 18 12 50 30 72 40 22 10 60 31 85 46 25 16 61 34 80 40 54 17 104 64
131 122 24 52 30 64 100 196 20 37 55 91 78 118 23 27 41 53 41 57 0 4 19 30
43 57 73 86 89 111 97 146 9 39 5 45 -60 74 -25 12 -52 25 -60 30 -55 36 -196
90 -305 118 -33 9 -81 22 -108 30 -50 14 -256 33 -347 31 -30 0 -84 -4 -120
-8z"/>
<path d="M9389 13000 c-153 -19 -474 -113 -531 -156 -32 -23 -77 -47 -125 -65
-17 -6 -23 -17 -23 -40 0 -23 15 -48 63 -103 120 -141 189 -242 220 -321 10
-27 24 -57 31 -65 7 -8 32 -49 55 -90 51 -92 76 -123 121 -145 19 -10 54 -31
77 -47 24 -16 62 -36 85 -44 24 -8 54 -25 68 -38 14 -13 40 -27 58 -31 17 -4
32 -13 32 -20 0 -19 72 -85 93 -85 10 0 22 -11 27 -25 5 -14 18 -28 27 -32 10
-3 40 -27 66 -52 l48 -46 34 37 c19 20 44 40 55 43 14 4 20 15 20 35 0 20 11
37 35 59 20 17 31 31 26 31 -13 0 -23 34 -15 54 9 24 33 19 46 -9 10 -22 13
-24 21 -10 5 10 4 22 -5 32 -7 9 -12 40 -12 75 1 51 5 63 27 83 14 14 29 35
32 47 4 13 14 30 22 39 17 20 23 140 23 477 l0 234 -51 59 c-45 52 -59 61
-118 79 -36 11 -95 24 -131 30 -93 14 -323 20 -401 10z"/>
<path d="M10187 12823 c-4 -3 -7 -40 -7 -82 0 -59 5 -83 20 -106 27 -41 29
-198 3 -227 -13 -15 -18 -49 -24 -166 -7 -156 -12 -179 -41 -200 -14 -10 -18
-27 -18 -77 0 -50 -4 -68 -19 -82 -10 -10 -24 -36 -31 -58 -17 -55 -67 -133
-91 -140 -10 -4 -22 -18 -25 -31 -5 -20 1 -33 27 -61 47 -49 57 -52 119 -43
115 18 366 30 648 32 276 1 295 3 319 21 20 16 23 25 18 46 -4 14 -10 64 -14
111 -5 61 -14 99 -32 135 -14 28 -29 68 -33 90 -8 42 -43 127 -77 185 -11 19
-35 67 -53 105 -21 43 -55 91 -88 125 -30 30 -73 80 -96 110 -22 30 -56 67
-74 83 -18 15 -62 51 -98 81 -90 74 -242 156 -290 156 -20 0 -40 -3 -43 -7z"/>
<path d="M6672 12782 c-55 -29 -291 -223 -307 -253 -6 -10 -44 -57 -86 -106
-41 -48 -83 -103 -92 -120 -9 -18 -24 -48 -34 -65 -9 -18 -36 -69 -61 -113
-44 -78 -72 -156 -72 -204 0 -14 -7 -32 -16 -42 -15 -17 -54 -179 -54 -226 0
-13 9 -42 20 -63 25 -49 55 -58 130 -40 30 7 80 14 110 15 30 1 120 5 200 8
80 4 243 8 363 9 212 2 218 2 238 25 17 17 19 26 11 36 -30 36 -124 234 -141
298 -10 41 -26 91 -35 111 -30 70 -66 315 -66 448 0 41 5 114 11 162 15 114 6
138 -48 138 -21 0 -53 -8 -71 -18z"/>
<path d="M8463 12558 c-18 -13 -38 -36 -44 -51 -7 -16 -43 -61 -82 -100 -76
-79 -133 -181 -123 -221 9 -38 44 -46 148 -35 55 7 138 8 203 4 188 -13 255
-11 265 5 16 26 11 56 -14 83 -14 15 -28 36 -31 48 -4 12 -25 44 -47 73 -22
28 -57 74 -77 101 -54 72 -107 115 -139 115 -15 0 -42 -10 -59 -22z"/>
<path d="M8382 11979 c-29 -5 -62 -14 -72 -19 -10 -6 -44 -10 -75 -10 -111 0
-169 -52 -192 -173 -36 -188 -37 -426 -2 -617 24 -128 18 -125 307 -181 105
-21 124 -22 245 -11 73 6 179 19 235 30 89 16 108 24 134 50 30 29 32 36 50
189 21 181 18 323 -12 496 -23 135 -42 173 -101 203 -72 37 -397 64 -517 43z
m234 -434 c12 -16 25 -39 29 -52 7 -31 -10 -95 -34 -125 -17 -20 -28 -23 -91
-23 -68 0 -73 2 -96 30 -46 58 -44 121 6 175 29 31 32 32 96 28 59 -4 69 -7
90 -33z"/>
<path d="M9215 11793 c-28 -43 -31 -82 -15 -209 10 -74 4 -194 -16 -342 -12
-82 57 -118 127 -67 19 13 48 30 64 38 44 21 107 65 121 86 7 10 27 21 43 24
18 4 32 14 36 27 3 11 21 31 40 45 52 40 61 73 35 131 -21 49 -68 91 -159 138
-20 11 -42 28 -49 38 -7 10 -30 25 -50 34 -20 8 -48 26 -62 38 -14 13 -39 31
-57 40 l-32 16 -26 -37z"/>
<path d="M7747 11773 c-26 -13 -47 -27 -47 -32 0 -5 -25 -22 -56 -37 -31 -15
-65 -40 -77 -56 -12 -16 -46 -48 -75 -70 -49 -38 -82 -81 -82 -107 0 -15 154
-167 198 -196 20 -13 57 -39 82 -56 92 -65 136 -67 161 -7 10 24 9 46 -5 119
-15 77 -16 108 -6 247 15 216 2 244 -93 195z"/>
<path d="M5980 11381 c-31 -30 -31 -32 -25 -103 4 -40 15 -109 25 -153 27
-119 38 -175 46 -223 4 -30 21 -63 54 -106 26 -34 56 -87 65 -117 12 -39 39
-80 91 -143 41 -49 74 -94 74 -101 0 -6 28 -36 62 -66 35 -30 79 -71 98 -91
22 -24 45 -38 60 -38 18 -1 32 -12 53 -45 17 -27 36 -45 47 -45 34 0 67 -21
81 -53 16 -36 62 -49 73 -20 15 37 19 174 7 230 -16 77 -17 136 -3 273 19 182
31 237 73 361 21 65 39 123 39 131 0 7 11 29 23 48 13 19 32 58 41 86 9 28 28
62 41 74 29 28 32 50 8 79 -17 20 -30 21 -358 26 -495 9 -608 12 -627 20 -12
5 -27 -3 -48 -24z"/>
<path d="M10028 11390 c-45 -8 -62 -21 -79 -62 -11 -28 -11 -32 9 -49 12 -9
27 -19 32 -21 6 -2 13 -20 16 -40 5 -27 2 -41 -10 -54 -18 -17 -18 -49 -1 -49
6 0 11 12 13 28 5 37 49 39 58 2 3 -14 15 -32 27 -40 19 -13 19 -17 7 -89 -7
-41 -10 -90 -6 -109 l7 -35 26 26 27 27 13 -55 c7 -30 17 -107 23 -170 5 -63
15 -157 21 -208 12 -86 11 -96 -9 -160 -24 -72 -30 -198 -12 -233 15 -27 78
-25 122 4 18 13 49 29 67 35 19 7 57 31 85 55 28 24 59 48 69 53 26 14 147
134 147 145 0 5 27 39 60 74 33 35 60 70 60 76 0 6 11 20 25 31 14 11 25 25
25 33 0 7 6 15 14 18 8 3 22 27 32 54 9 26 28 59 41 74 12 14 23 32 23 40 0 8
7 24 15 36 9 12 24 55 35 95 10 40 29 105 41 143 35 114 51 277 30 298 -8 8
-86 14 -264 19 -446 11 -751 14 -789 8z"/>
<path d="M9765 11320 c-10 -11 -27 -22 -39 -26 -11 -4 -32 -15 -45 -25 -13
-11 -32 -19 -41 -19 -10 0 -23 -13 -29 -28 -19 -46 -118 -129 -187 -158 -18
-8 -36 -18 -39 -24 -4 -6 -36 -24 -73 -41 -37 -16 -78 -40 -92 -53 -14 -12
-43 -28 -66 -34 -50 -15 -67 -32 -94 -102 -27 -69 -65 -135 -102 -178 -15 -18
-28 -43 -28 -56 0 -13 -7 -29 -15 -36 -8 -7 -15 -19 -15 -26 0 -7 -12 -21 -26
-30 -14 -10 -34 -34 -45 -56 -11 -21 -26 -38 -34 -38 -9 0 -18 -13 -21 -30 -5
-21 -12 -30 -26 -30 -11 0 -35 -15 -54 -34 -29 -29 -34 -41 -34 -80 0 -50 16
-68 75 -82 16 -4 43 -15 60 -25 16 -9 40 -20 53 -24 12 -3 33 -17 45 -29 13
-13 42 -26 65 -30 23 -3 42 -11 42 -17 0 -16 65 -39 109 -39 33 0 44 -5 61
-28 l21 -28 267 3 c294 3 362 -1 362 -23 0 -8 5 -14 10 -14 6 0 10 7 10 15 0
18 24 31 75 40 65 12 101 40 121 93 10 26 26 58 36 72 16 23 18 56 19 348 1
309 0 325 -19 351 -10 15 -25 51 -31 81 -6 29 -20 67 -30 84 -11 17 -22 49
-26 71 -10 62 -15 75 -28 75 -18 1 -62 69 -81 127 -11 32 -29 62 -47 78 -37
30 -41 31 -64 5z"/>
<path d="M7227 11262 c-8 -9 -30 -46 -47 -82 -17 -36 -39 -81 -50 -100 -31
-58 -103 -294 -122 -400 -19 -110 -15 -429 6 -540 22 -112 40 -159 64 -166 9
-3 38 -16 65 -29 l47 -25 313 0 312 0 44 25 c26 15 59 25 82 25 30 0 46 6 64
26 18 20 37 27 82 31 48 5 63 11 90 39 28 28 112 64 150 64 5 0 19 9 31 20 47
44 21 104 -102 239 -47 51 -86 97 -86 101 0 5 -11 22 -25 38 -13 16 -40 60
-60 98 -20 38 -47 80 -60 94 -13 14 -33 50 -44 81 -24 63 -52 94 -96 105 -47
11 -197 84 -225 109 -14 12 -42 28 -63 35 -21 6 -57 28 -81 48 -24 21 -82 70
-129 110 -91 77 -128 90 -160 54z"/>
<path d="M8705 10808 c-161 -19 -215 -23 -251 -15 -22 5 -78 9 -125 10 -109 2
-139 -11 -139 -62 1 -40 13 -67 54 -114 15 -18 40 -53 56 -78 16 -27 41 -52
59 -60 20 -9 35 -25 41 -45 13 -40 65 -87 114 -103 38 -13 38 -13 82 30 24 24
44 51 44 60 0 9 19 37 43 61 63 67 117 139 117 158 0 9 11 27 25 40 27 25 36
92 14 106 -24 14 -76 19 -134 12z"/>
<path d="M8366 10038 c-10 -6 -40 -16 -67 -23 -26 -7 -67 -29 -91 -48 -74 -59
-152 -91 -323 -132 -38 -9 -74 -21 -79 -26 -18 -17 -82 -10 -101 11 l-19 21
-22 -24 c-18 -19 -37 -26 -91 -32 -37 -4 -76 -11 -85 -16 -12 -6 -25 -2 -45
14 -20 17 -35 22 -53 17 -14 -4 -43 -1 -65 6 -126 39 -151 35 -161 -27 -5 -29
2 -51 36 -118 23 -46 61 -104 84 -130 24 -25 64 -73 91 -106 57 -71 125 -139
180 -180 22 -16 45 -37 52 -46 14 -19 235 -145 303 -172 149 -61 293 -103 382
-112 85 -9 113 6 122 62 3 21 6 262 8 535 3 486 3 498 -17 517 -16 16 -24 18
-39 9z"/>
<path d="M8632 10014 c-16 -36 -17 -80 -14 -534 3 -461 9 -561 31 -575 15 -9
214 17 243 31 15 8 58 21 95 30 37 8 72 19 78 23 5 5 33 14 62 20 28 7 59 21
68 31 9 10 31 24 48 31 18 7 39 18 47 24 8 7 37 20 63 30 29 11 61 33 81 57
18 21 37 38 42 38 9 0 97 62 143 101 13 11 37 40 53 64 16 24 56 67 89 96 34
29 62 62 65 78 4 14 11 31 18 36 16 15 69 95 83 129 24 52 17 72 -33 100 -59
33 -84 34 -84 3 0 -22 -6 -23 -117 -36 -142 -16 -200 -16 -220 1 -8 6 -34 11
-58 9 -24 -1 -46 2 -50 8 -3 6 -40 11 -87 11 -84 0 -152 15 -249 56 -31 13
-63 24 -70 24 -8 0 -39 13 -69 30 -30 16 -61 29 -69 30 -7 0 -22 11 -32 25
-12 14 -35 27 -57 31 -20 4 -47 14 -60 22 -21 14 -23 13 -40 -24z"/>
<path d="M6822 10018 c6 -18 112 -69 117 -56 2 7 -1 14 -8 16 -7 2 -16 15 -21
28 -8 20 -16 24 -51 24 -26 0 -39 -4 -37 -12z"/>
<path d="M6998 9923 c-23 -6 -22 -12 7 -45 18 -22 33 -28 62 -28 33 1 36 2 21
14 -10 7 -22 25 -27 39 -10 26 -24 30 -63 20z"/>
<path d="M7350 9850 c0 -5 7 -10 15 -10 8 0 15 5 15 10 0 6 -7 10 -15 10 -8 0
-15 -4 -15 -10z"/>
<path d="M11596 3821 c-10 -16 5 -41 25 -41 23 0 24 13 3 34 -18 19 -21 19
-28 7z"/>
</g>
</svg>
